<svg id="visual" viewBox="0 0 960 300" width="960" height="300" xmlns="http://www.w3.org/2000/svg" xmlns:xlink="http://www.w3.org/1999/xlink" version="1.1"><rect x="0" y="0" width="960" height="300" fill="#202731"></rect><path d="M0 168L26.7 168.2C53.3 168.3 106.7 168.7 160 177.5C213.3 186.3 266.7 203.7 320 204.5C373.3 205.3 426.7 189.7 480 190.7C533.3 191.7 586.7 209.3 640 216.3C693.3 223.3 746.7 219.7 800 209.8C853.3 200 906.7 184 933.3 176L960 168L960 0L933.3 0C906.7 0 853.3 0 800 0C746.7 0 693.3 0 640 0C586.7 0 533.3 0 480 0C426.7 0 373.3 0 320 0C266.7 0 213.3 0 160 0C106.7 0 53.3 0 26.7 0L0 0Z" fill="#ff6f61"></path><path d="M0 135L26.7 132.7C53.3 130.3 106.7 125.7 160 133.7C213.3 141.7 266.7 162.3 320 168.3C373.3 174.3 426.7 165.7 480 164C533.3 162.3 586.7 167.7 640 172.5C693.3 177.3 746.7 181.7 800 172.2C853.3 162.7 906.7 139.3 933.3 127.7L960 116L960 0L933.3 0C906.7 0 853.3 0 800 0C746.7 0 693.3 0 640 0C586.7 0 533.3 0 480 0C426.7 0 373.3 0 320 0C266.7 0 213.3 0 160 0C106.7 0 53.3 0 26.7 0L0 0Z" fill="#f76455"></path><path d="M0 114L26.7 110C53.3 106 106.7 98 160 97.7C213.3 97.3 266.7 104.7 320 104.2C373.3 103.7 426.7 95.3 480 96.2C533.3 97 586.7 107 640 113.3C693.3 119.7 746.7 122.3 800 127.3C853.3 132.3 906.7 139.7 933.3 143.3L960 147L960 0L933.3 0C906.7 0 853.3 0 800 0C746.7 0 693.3 0 640 0C586.7 0 533.3 0 480 0C426.7 0 373.3 0 320 0C266.7 0 213.3 0 160 0C106.7 0 53.3 0 26.7 0L0 0Z" fill="#ee5849"></path><path d="M0 83L26.7 82C53.3 81 106.7 79 160 76.3C213.3 73.7 266.7 70.3 320 72.8C373.3 75.3 426.7 83.7 480 86.3C533.3 89 586.7 86 640 86C693.3 86 746.7 89 800 91.2C853.3 93.3 906.7 94.7 933.3 95.3L960 96L960 0L933.3 0C906.7 0 853.3 0 800 0C746.7 0 693.3 0 640 0C586.7 0 533.3 0 480 0C426.7 0 373.3 0 320 0C266.7 0 213.3 0 160 0C106.7 0 53.3 0 26.7 0L0 0Z" fill="#e64c3d"></path><path d="M0 43L26.7 46.8C53.3 50.7 106.7 58.3 160 57.3C213.3 56.3 266.7 46.7 320 46C373.3 45.3 426.7 53.7 480 56.7C533.3 59.7 586.7 57.3 640 55C693.3 52.7 746.7 50.3 800 45.3C853.3 40.3 906.7 32.7 933.3 28.8L960 25L960 0L933.3 0C906.7 0 853.3 0 800 0C746.7 0 693.3 0 640 0C586.7 0 533.3 0 480 0C426.7 0 373.3 0 320 0C266.7 0 213.3 0 160 0C106.7 0 53.3 0 26.7 0L0 0Z" fill="#dd3f31"></path></svg>