<svg id="visual" viewBox="0 0 960 300" width="960" height="300" xmlns="http://www.w3.org/2000/svg" xmlns:xlink="http://www.w3.org/1999/xlink" version="1.1"><rect x="0" y="0" width="960" height="300" fill="#202731"></rect><path d="M0 209L14.5 206.3C29 203.7 58 198.3 87.2 192.8C116.3 187.3 145.7 181.7 174.8 178.7C204 175.7 233 175.3 262 180C291 184.7 320 194.3 349 202.3C378 210.3 407 216.7 436.2 214.7C465.3 212.7 494.7 202.3 523.8 198.8C553 195.3 582 198.7 611 200.7C640 202.7 669 203.3 698 206C727 208.7 756 213.3 785.2 209.3C814.3 205.3 843.7 192.7 872.8 194.8C902 197 931 214 945.5 222.5L960 231L960 0L945.5 0C931 0 902 0 872.8 0C843.7 0 814.3 0 785.2 0C756 0 727 0 698 0C669 0 640 0 611 0C582 0 553 0 523.8 0C494.7 0 465.3 0 436.2 0C407 0 378 0 349 0C320 0 291 0 262 0C233 0 204 0 174.8 0C145.7 0 116.3 0 87.2 0C58 0 29 0 14.5 0L0 0Z" fill="#202731"></path><path d="M0 175L14.5 173.8C29 172.7 58 170.3 87.2 163.8C116.3 157.3 145.7 146.7 174.8 149C204 151.3 233 166.7 262 171.3C291 176 320 170 349 169C378 168 407 172 436.2 174.2C465.3 176.3 494.7 176.7 523.8 171.3C553 166 582 155 611 156.5C640 158 669 172 698 172.2C727 172.3 756 158.7 785.2 154.8C814.3 151 843.7 157 872.8 157.7C902 158.3 931 153.7 945.5 151.3L960 149L960 0L945.5 0C931 0 902 0 872.8 0C843.7 0 814.3 0 785.2 0C756 0 727 0 698 0C669 0 640 0 611 0C582 0 553 0 523.8 0C494.7 0 465.3 0 436.2 0C407 0 378 0 349 0C320 0 291 0 262 0C233 0 204 0 174.8 0C145.7 0 116.3 0 87.2 0C58 0 29 0 14.5 0L0 0Z" fill="#373860"></path><path d="M0 109L14.5 115.2C29 121.3 58 133.7 87.2 133.2C116.3 132.7 145.7 119.3 174.8 113.8C204 108.3 233 110.7 262 115.8C291 121 320 129 349 128C378 127 407 117 436.2 116.2C465.3 115.3 494.7 123.7 523.8 128.3C553 133 582 134 611 132.8C640 131.7 669 128.3 698 131C727 133.7 756 142.3 785.2 140C814.3 137.7 843.7 124.3 872.8 118.3C902 112.3 931 113.7 945.5 114.3L960 115L960 0L945.5 0C931 0 902 0 872.8 0C843.7 0 814.3 0 785.2 0C756 0 727 0 698 0C669 0 640 0 611 0C582 0 553 0 523.8 0C494.7 0 465.3 0 436.2 0C407 0 378 0 349 0C320 0 291 0 262 0C233 0 204 0 174.8 0C145.7 0 116.3 0 87.2 0C58 0 29 0 14.5 0L0 0Z" fill="#733c81"></path><path d="M0 69L14.5 71C29 73 58 77 87.2 79.8C116.3 82.7 145.7 84.3 174.8 88.3C204 92.3 233 98.7 262 100C291 101.3 320 97.7 349 96.5C378 95.3 407 96.7 436.2 91.8C465.3 87 494.7 76 523.8 77.5C553 79 582 93 611 99.8C640 106.7 669 106.3 698 105.2C727 104 756 102 785.2 94.7C814.3 87.3 843.7 74.7 872.8 70.5C902 66.3 931 70.7 945.5 72.8L960 75L960 0L945.5 0C931 0 902 0 872.8 0C843.7 0 814.3 0 785.2 0C756 0 727 0 698 0C669 0 640 0 611 0C582 0 553 0 523.8 0C494.7 0 465.3 0 436.2 0C407 0 378 0 349 0C320 0 291 0 262 0C233 0 204 0 174.8 0C145.7 0 116.3 0 87.2 0C58 0 29 0 14.5 0L0 0Z" fill="#bd2b84"></path><path d="M0 25L14.5 25.2C29 25.3 58 25.7 87.2 31.2C116.3 36.7 145.7 47.3 174.8 51.2C204 55 233 52 262 51.3C291 50.7 320 52.3 349 54.5C378 56.7 407 59.3 436.2 55C465.3 50.7 494.7 39.3 523.8 34.5C553 29.7 582 31.3 611 37.7C640 44 669 55 698 60C727 65 756 64 785.2 58.7C814.3 53.3 843.7 43.7 872.8 38C902 32.3 931 30.7 945.5 29.8L960 29L960 0L945.5 0C931 0 902 0 872.8 0C843.7 0 814.3 0 785.2 0C756 0 727 0 698 0C669 0 640 0 611 0C582 0 553 0 523.8 0C494.7 0 465.3 0 436.2 0C407 0 378 0 349 0C320 0 291 0 262 0C233 0 204 0 174.8 0C145.7 0 116.3 0 87.2 0C58 0 29 0 14.5 0L0 0Z" fill="#ff0066"></path></svg>